<svg xmlns="http://www.w3.org/2000/svg" xmlns:xlink="http://www.w3.org/1999/xlink" width="1200" height="675" viewBox="0 0 1200 675"><defs><linearGradient id="cyberBg" x1="0%" x2="100%" y1="0%" y2="100%"><stop offset="0%" style="stop-color:#020617;stop-opacity:1"/><stop offset="40%" style="stop-color:#0f172a;stop-opacity:1"/><stop offset="100%" style="stop-color:#172554;stop-opacity:1"/></linearGradient><linearGradient id="neonBlue" x1="0%" x2="100%" y1="0%" y2="0%"><stop offset="0%" style="stop-color:#22d3ee;stop-opacity:1"/><stop offset="100%" style="stop-color:#3b82f6;stop-opacity:1"/></linearGradient><linearGradient id="neonOrange" x1="0%" x2="100%" y1="0%" y2="0%"><stop offset="0%" style="stop-color:#f97316;stop-opacity:1"/><stop offset="100%" style="stop-color:#ef4444;stop-opacity:1"/></linearGradient><filter id="glow" width="200%" height="200%" x="-50%" y="-50%"><feGaussianBlur result="coloredBlur" stdDeviation="3"/><feMerge><feMergeNode in="coloredBlur"/><feMergeNode in="SourceGraphic"/></feMerge></filter><pattern id="grid" width="60" height="60" patternUnits="userSpaceOnUse"><path fill="none" stroke="rgba(255,255,255,0.03)" stroke-width="1" d="M 60 0 L 0 0 0 60"/></pattern><clipPath id="profileClip"><circle cx="35" cy="35" r="35"/></clipPath></defs><rect width="1200" height="675" fill="#000"/><rect width="1200" height="675" fill="url(#grid)" opacity=".5"/><g><g filter="url(#glow)" transform="translate(940, 320) scale(1.3)"><circle cx="0" cy="0" r="30" fill="none" stroke="#22d3ee" stroke-width="2"><animate attributeName="r" dur="3s" repeatCount="indefinite" values="30;34;30"/><animate attributeName="opacity" dur="3s" repeatCount="indefinite" values="1;0.5;1"/></circle><path fill="#22d3ee" d="M-12,-12 L12,-12 L12,12 L-12,12 Z" opacity=".8"><animateTransform attributeName="transform" dur="10s" from="0 0 0" repeatCount="indefinite" to="360 0 0" type="rotate"/></path><text x="0" y="55" fill="#22d3ee" font-family="monospace" font-size="14" font-weight="bold" letter-spacing="2" text-anchor="middle">AI CONTEXT</text></g><g transform="translate(940, 320) scale(1.3) translate(0, -140)"><circle r="24" fill="#0f172a" stroke="#f97316" stroke-width="2" filter="url(#glow)"/><path fill="none" stroke="#f97316" stroke-width="2" d="M-8,-5 L0,-12 L8,-5 M-8,5 L0,12 L8,5"/><text x="0" y="42" fill="#f97316" font-family="sans-serif" font-size="12" font-weight="bold" text-anchor="middle">GIT REPO</text><path stroke="url(#neonOrange)" stroke-dasharray="4 4" stroke-width="1" d="M0,24 L0,116" opacity=".3"/><circle r="4" fill="#f97316" filter="url(#glow)"><animateMotion calcMode="linear" dur="1.5s" keyPoints="0;1" keyTimes="0;1" path="M0,24 L0,116" repeatCount="indefinite"/></circle></g><g transform="translate(940, 320) scale(1.3) translate(120, 70)"><circle r="24" fill="#0f172a" stroke="#8b5cf6" stroke-width="2" filter="url(#glow)"/><circle r="10" fill="none" stroke="#8b5cf6" stroke-width="1"/><text x="0" y="42" fill="#8b5cf6" font-family="sans-serif" font-size="12" font-weight="bold" text-anchor="middle">OPEN API</text><path stroke="#8b5cf6" stroke-dasharray="4 4" stroke-width="1" d="M-20,-12 L-98,-58" opacity=".3"/><circle r="4" fill="#8b5cf6" filter="url(#glow)"><animateMotion calcMode="linear" dur="2s" keyPoints="0;1" keyTimes="0;1" path="M-20,-12 L-98,-58" repeatCount="indefinite"/></circle></g><g transform="translate(940, 320) scale(1.3) translate(-120, 70)"><circle r="24" fill="#0f172a" stroke="#10b981" stroke-width="2" filter="url(#glow)"/><path fill="none" stroke="#10b981" stroke-width="2" d="M-6,-10 L6,0 L-6,10 M6,-10 L-6,0 L6,10"/><text x="0" y="42" fill="#10b981" font-family="sans-serif" font-size="12" font-weight="bold" text-anchor="middle">JIRA</text><path stroke="#10b981" stroke-dasharray="4 4" stroke-width="1" d="M20,-12 L98,-58" opacity=".3"/><circle r="4" fill="#10b981" filter="url(#glow)"><animateMotion calcMode="linear" dur="2.5s" keyPoints="0;1" keyTimes="0;1" path="M20,-12 L98,-58" repeatCount="indefinite"/></circle></g></g></svg>