<svg xmlns="http://www.w3.org/2000/svg" width="1200" height="575" viewBox="0 0 1200 675"><defs><linearGradient id="chaosLine" x1="0%" x2="100%" y1="0%" y2="0%"><stop offset="0%" style="stop-color:#f87171;stop-opacity:.6"/><stop offset="100%" style="stop-color:#ef4444;stop-opacity:1"/></linearGradient><linearGradient id="orderLine" x1="0%" x2="100%" y1="0%" y2="0%"><stop offset="0%" style="stop-color:#2dd4bf;stop-opacity:.6"/><stop offset="100%" style="stop-color:#34d399;stop-opacity:1"/></linearGradient><filter id="glow"><feGaussianBlur result="coloredBlur" stdDeviation="2.5"/><feMerge><feMergeNode in="coloredBlur"/><feMergeNode in="SourceGraphic"/></feMerge></filter><filter id="redGlow" width="200%" height="200%" x="-50%" y="-50%"><feGaussianBlur result="blur" stdDeviation="50"/><feColorMatrix in="blur" result="redBlur" type="matrix" values="1 0 0 0 0 0 0 0 0 0 0 0 0 0 0 0 0 0 0.3 0"/><feMerge><feMergeNode in="redBlur"/><feMergeNode in="SourceGraphic"/></feMerge></filter><filter id="greenGlow" width="200%" height="200%" x="-50%" y="-50%"><feGaussianBlur result="blur" stdDeviation="50"/><feColorMatrix in="blur" result="greenBlur" type="matrix" values="0 0 0 0 0 0 1 0 0 0 0 0 0 0 0 0 0 0 0.3 0"/><feMerge><feMergeNode in="greenBlur"/><feMergeNode in="SourceGraphic"/></feMerge></filter><symbol id="icon-client" viewBox="0 0 40 40"><circle cx="20" cy="20" r="18" fill="transparent" stroke="#fff" stroke-width="2"/></symbol><symbol id="icon-data" viewBox="0 0 40 40"><rect width="36" height="24" x="2" y="8" fill="transparent" stroke="#fff" stroke-width="2" rx="4"/></symbol><symbol id="icon-jira" viewBox="0 0 40 40"><rect width="36" height="24" x="2" y="8" fill="transparent" stroke="#fff" stroke-width="2" rx="4"/><path fill="none" stroke="#fff" stroke-width="2" d="M12,20 L20,12 L28,20 L20,28 Z"/><path fill="none" stroke="#fff" stroke-width="2" d="M20,12 L20,28"/></symbol><symbol id="icon-vscode" viewBox="0 0 40 40"><circle cx="20" cy="20" r="18" fill="transparent" stroke="#fff" stroke-width="2"/><path fill="none" stroke="#fff" stroke-width="2" d="M28,10 L12,20 L28,30"/><path fill="none" stroke="#fff" stroke-width="2" d="M12,20 L28,20"/></symbol></defs><rect width="1200" height="675" fill="#020617"/><g filter="url(#redGlow)"><rect width="550" height="675" fill="none"/><text x="275" y="60" fill="#FF0" font-family="sans-serif" font-size="32" font-weight="900" text-anchor="middle">Before MCP: The M×N Problem</text><text x="275" y="90" fill="#fff" font-family="sans-serif" font-size="16" text-anchor="middle">Connecting M models to N tools required a chaotic web of up to M×N custom integrations.</text><use width="40" height="40" x="25" y="150" href="#icon-client"/><text x="45" y="210" fill="#fff" font-family="sans-serif" font-size="12" font-weight="bold" text-anchor="middle">Claude</text><use width="40" height="40" x="25" y="300" href="#icon-client"/><text x="45" y="360" fill="#fff" font-family="sans-serif" font-size="12" font-weight="bold" text-anchor="middle">Cursor</text><use width="40" height="40" x="25" y="450" href="#icon-vscode"/><text x="45" y="510" fill="#fff" font-family="sans-serif" font-size="12" font-weight="bold" text-anchor="middle">VS Code</text><use width="40" height="40" x="485" y="150" href="#icon-jira"/><text x="505" y="210" fill="#fff" font-family="sans-serif" font-size="12" font-weight="bold" text-anchor="middle">JIRA</text><use width="40" height="40" x="485" y="300" href="#icon-data"/><text x="505" y="360" fill="#fff" font-family="sans-serif" font-size="12" font-weight="bold" text-anchor="middle">Git</text><use width="40" height="40" x="485" y="450" href="#icon-data"/><text x="505" y="510" fill="#fff" font-family="sans-serif" font-size="12" font-weight="bold" text-anchor="middle">Slack</text><g opacity=".8"><path fill="none" stroke="url(#chaosLine)" stroke-dasharray="5 5" stroke-width="2" d="M65,170 C125,170 125,320 225,320 C325,320 325,170 485,170"/><circle r="3" fill="#ef4444"><animateMotion dur="4s" path="M65,170 C125,170 125,320 225,320 C325,320 325,170 485,170" repeatCount="indefinite"/></circle><path fill="none" stroke="url(#chaosLine)" stroke-dasharray="5 5" stroke-width="2" d="M65,320 C125,350 425,290 485,320"/><path fill="none" stroke="url(#chaosLine)" stroke-dasharray="5 5" stroke-width="2" d="M65,320 C125,320 125,170 225,170 C325,170 325,470 485,470"/><circle r="3" fill="#ef4444"><animateMotion dur="5s" path="M65,320 C125,320 125,170 225,170 C325,170 325,470 485,470" repeatCount="indefinite"/></circle><path fill="none" stroke="url(#chaosLine)" stroke-dasharray="5 5" stroke-width="2" d="M65,470 C125,470 125,320 225,320 C325,320 425,320 485,320"/><path fill="none" stroke="url(#chaosLine)" stroke-dasharray="5 5" stroke-width="2" d="M65,170 L485,470" opacity=".5"/><path fill="none" stroke="url(#chaosLine)" stroke-dasharray="5 5" stroke-width="2" d="M65,470 L485,170" opacity=".5"/></g><text x="275" y="320" fill="#dc2626" font-size="60" opacity=".9" text-anchor="middle">⚠️ <animate attributeName="opacity" dur="2s" repeatCount="indefinite" values="0.5;1;0.5"/></text></g><rect width="100" height="675" x="550" y="0" fill="none"/><g filter="url(#greenGlow)" transform="translate(650, 0)"><rect width="550" height="675" fill="none"/><text x="275" y="60" fill="#FF0" font-family="sans-serif" font-size="32" font-weight="900" text-anchor="middle">With MCP: The M+N Solution</text><text x="275" y="90" fill="#fff" font-family="sans-serif" font-size="16" text-anchor="middle">MCP creates a standard protocol, turning the problem into a simple M+N connection task.</text><use width="40" height="40" x="25" y="150" href="#icon-client"/><text x="45" y="210" fill="#fff" font-family="sans-serif" font-size="12" font-weight="bold" text-anchor="middle">Claude</text><use width="40" height="40" x="25" y="300" href="#icon-client"/><text x="45" y="360" fill="#fff" font-family="sans-serif" font-size="12" font-weight="bold" text-anchor="middle">Cursor</text><use width="40" height="40" x="25" y="450" href="#icon-vscode"/><text x="45" y="510" fill="#fff" font-family="sans-serif" font-size="12" font-weight="bold" text-anchor="middle">VS Code</text><use width="40" height="40" x="485" y="150" href="#icon-jira"/><text x="505" y="210" fill="#fff" font-family="sans-serif" font-size="12" font-weight="bold" text-anchor="middle">JIRA</text><use width="40" height="40" x="485" y="300" href="#icon-data"/><text x="505" y="360" fill="#fff" font-family="sans-serif" font-size="12" font-weight="bold" text-anchor="middle">Git</text><use width="40" height="40" x="485" y="450" href="#icon-data"/><text x="505" y="510" fill="#fff" font-family="sans-serif" font-size="12" font-weight="bold" text-anchor="middle">Slack</text><g filter="url(#glow)" transform="translate(235, 280)"><rect width="80" height="80" x="0" y="0" fill="#065f46" stroke="#34d399" stroke-width="3" rx="10"/><text x="40" y="45" fill="#fff" font-family="monospace" font-size="14" font-weight="bold" text-anchor="middle">MCP</text><text x="40" y="60" fill="#34d399" font-family="monospace" font-size="10" text-anchor="middle">HOST</text><circle cx="40" cy="40" r="50" fill="none" stroke="#34d399" opacity=".5"><animate attributeName="r" dur="1.5s" repeatCount="indefinite" values="40;55"/><animate attributeName="opacity" dur="1.5s" repeatCount="indefinite" values="0.5;0"/></circle></g><g opacity="1"><path stroke="url(#orderLine)" stroke-width="3" d="M65,170 L235,320"/><path stroke="url(#orderLine)" stroke-width="3" d="M65,320 L235,320"/><path stroke="url(#orderLine)" stroke-width="3" d="M65,470 L235,320"/><path stroke="url(#orderLine)" stroke-width="3" d="M315,320 L485,170"/><path stroke="url(#orderLine)" stroke-width="3" d="M315,320 L485,320"/><path stroke="url(#orderLine)" stroke-width="3" d="M315,320 L485,470"/><path fill="none" stroke="url(#orderLine)" stroke-dasharray="5 5" stroke-width="2" d="M65,320 C125,350 425,290 485,320" opacity=".7"/><circle r="5" fill="#34d399" filter="url(#glow)"><animateMotion dur="2s" keyPoints="0;0.5;1" keyTimes="0;0.5;1" path="M485,170 L315,320 L65,170" repeatCount="indefinite"/></circle><circle r="5" fill="#34d399" filter="url(#glow)"><animateMotion begin="0.3s" dur="2.5s" keyPoints="0;0.5;1" keyTimes="0;0.5;1" path="M485,300 L315,320 L65,320" repeatCount="indefinite"/></circle><circle r="5" fill="#34d399" filter="url(#glow)"><animateMotion begin="0.7s" dur="2.2s" keyPoints="0;0.5;1" keyTimes="0;0.5;1" path="M485,450 L315,320 L65,450" repeatCount="indefinite"/></circle><circle r="4" fill="#fff" filter="url(#glow)" opacity=".7"><animateMotion begin="1s" dur="3s" keyPoints="0;0.5;1" keyTimes="0;0.5;1" path="M65,170 L235,320 L485,170" repeatCount="indefinite"/></circle></g></g><line x1="600" x2="600" y1="0" y2="675" stroke="#374151" stroke-dasharray="10 5" stroke-width="2"/></svg>